<mxfile host="app.diagrams.net" agent="Mozilla/5.0 (Windows NT 10.0; Win64; x64; rv:130.0) Gecko/20100101 Firefox/130.0" version="24.7.14">
  <diagram name="第 1 页" id="62-ENxzyJH9NeNJrLu4Y">
    <mxGraphModel dx="1283" dy="694" grid="1" gridSize="10" guides="1" tooltips="1" connect="1" arrows="1" fold="1" page="1" pageScale="1" pageWidth="827" pageHeight="1169" math="0" shadow="0">
      <root>
        <mxCell id="0" />
        <mxCell id="1" parent="0" />
        <mxCell id="Wil9Z2Lvd69lb8-8Z4S7-1" value="" style="rounded=0;whiteSpace=wrap;html=1;dashed=1;fillColor=none;" vertex="1" parent="1">
          <mxGeometry x="270" y="370" width="290" height="180" as="geometry" />
        </mxCell>
        <mxCell id="Wil9Z2Lvd69lb8-8Z4S7-2" value="Node1:type=logs" style="rounded=0;whiteSpace=wrap;html=1;strokeColor=none;fillColor=none;" vertex="1" parent="1">
          <mxGeometry x="330" y="370" width="120" height="20" as="geometry" />
        </mxCell>
        <mxCell id="Wil9Z2Lvd69lb8-8Z4S7-3" value="&lt;div&gt;Pod-1&lt;/div&gt;&lt;div&gt;应用容器组&lt;br&gt;&lt;/div&gt;" style="rounded=0;whiteSpace=wrap;html=1;" vertex="1" parent="1">
          <mxGeometry x="280" y="390" width="120" height="60" as="geometry" />
        </mxCell>
        <mxCell id="Wil9Z2Lvd69lb8-8Z4S7-5" value="" style="rounded=0;whiteSpace=wrap;html=1;" vertex="1" parent="1">
          <mxGeometry x="414" y="390" width="140" height="150" as="geometry" />
        </mxCell>
        <mxCell id="Wil9Z2Lvd69lb8-8Z4S7-4" value="&lt;div&gt;Pod: logstash-ds&lt;/div&gt;&lt;div&gt;nodeSelector:type=logs&lt;br&gt;&lt;/div&gt;" style="rounded=0;whiteSpace=wrap;html=1;fillColor=none;strokeColor=none;" vertex="1" parent="1">
          <mxGeometry x="414" y="390" width="140" height="50" as="geometry" />
        </mxCell>
        <mxCell id="Wil9Z2Lvd69lb8-8Z4S7-6" value="&lt;div&gt;容器1&lt;/div&gt;&lt;div&gt;日志收集程序&lt;br&gt;&lt;/div&gt;" style="rounded=0;whiteSpace=wrap;html=1;" vertex="1" parent="1">
          <mxGeometry x="424" y="440" width="120" height="50" as="geometry" />
        </mxCell>
        <mxCell id="Wil9Z2Lvd69lb8-8Z4S7-7" value="pause容器" style="rounded=0;whiteSpace=wrap;html=1;" vertex="1" parent="1">
          <mxGeometry x="424" y="500" width="120" height="30" as="geometry" />
        </mxCell>
        <mxCell id="Wil9Z2Lvd69lb8-8Z4S7-8" value="&lt;div&gt;Pod-N&lt;/div&gt;&lt;div&gt;应用容器组&lt;br&gt;&lt;/div&gt;" style="rounded=0;whiteSpace=wrap;html=1;" vertex="1" parent="1">
          <mxGeometry x="280" y="470" width="120" height="60" as="geometry" />
        </mxCell>
        <mxCell id="Wil9Z2Lvd69lb8-8Z4S7-9" value="" style="rounded=0;whiteSpace=wrap;html=1;dashed=1;fillColor=none;" vertex="1" parent="1">
          <mxGeometry x="580" y="370" width="290" height="180" as="geometry" />
        </mxCell>
        <mxCell id="Wil9Z2Lvd69lb8-8Z4S7-10" value="Node2:type=logs" style="rounded=0;whiteSpace=wrap;html=1;strokeColor=none;fillColor=none;" vertex="1" parent="1">
          <mxGeometry x="640" y="370" width="120" height="20" as="geometry" />
        </mxCell>
        <mxCell id="Wil9Z2Lvd69lb8-8Z4S7-11" value="&lt;div&gt;Pod-1&lt;/div&gt;&lt;div&gt;应用容器组&lt;br&gt;&lt;/div&gt;" style="rounded=0;whiteSpace=wrap;html=1;" vertex="1" parent="1">
          <mxGeometry x="590" y="390" width="120" height="60" as="geometry" />
        </mxCell>
        <mxCell id="Wil9Z2Lvd69lb8-8Z4S7-12" value="" style="rounded=0;whiteSpace=wrap;html=1;" vertex="1" parent="1">
          <mxGeometry x="724" y="390" width="140" height="150" as="geometry" />
        </mxCell>
        <mxCell id="Wil9Z2Lvd69lb8-8Z4S7-13" value="&lt;div&gt;Pod: logstash-ds&lt;/div&gt;&lt;div&gt;nodeSelector:type=logs&lt;br&gt;&lt;/div&gt;" style="rounded=0;whiteSpace=wrap;html=1;fillColor=none;strokeColor=none;" vertex="1" parent="1">
          <mxGeometry x="724" y="390" width="140" height="50" as="geometry" />
        </mxCell>
        <mxCell id="Wil9Z2Lvd69lb8-8Z4S7-14" value="&lt;div&gt;容器1&lt;/div&gt;&lt;div&gt;日志收集程序&lt;br&gt;&lt;/div&gt;" style="rounded=0;whiteSpace=wrap;html=1;" vertex="1" parent="1">
          <mxGeometry x="734" y="440" width="120" height="50" as="geometry" />
        </mxCell>
        <mxCell id="Wil9Z2Lvd69lb8-8Z4S7-15" value="pause容器" style="rounded=0;whiteSpace=wrap;html=1;" vertex="1" parent="1">
          <mxGeometry x="734" y="500" width="120" height="30" as="geometry" />
        </mxCell>
        <mxCell id="Wil9Z2Lvd69lb8-8Z4S7-16" value="&lt;div&gt;Pod-N&lt;/div&gt;&lt;div&gt;应用容器组&lt;br&gt;&lt;/div&gt;" style="rounded=0;whiteSpace=wrap;html=1;" vertex="1" parent="1">
          <mxGeometry x="590" y="470" width="120" height="60" as="geometry" />
        </mxCell>
        <mxCell id="Wil9Z2Lvd69lb8-8Z4S7-17" value="" style="rounded=0;whiteSpace=wrap;html=1;dashed=1;fillColor=none;" vertex="1" parent="1">
          <mxGeometry x="890" y="370" width="280" height="180" as="geometry" />
        </mxCell>
        <mxCell id="Wil9Z2Lvd69lb8-8Z4S7-18" value="Node3:type=apm" style="rounded=0;whiteSpace=wrap;html=1;strokeColor=none;fillColor=none;" vertex="1" parent="1">
          <mxGeometry x="940" y="370" width="120" height="20" as="geometry" />
        </mxCell>
        <mxCell id="Wil9Z2Lvd69lb8-8Z4S7-19" value="&lt;div&gt;Pod-1&lt;/div&gt;&lt;div&gt;应用容器组&lt;br&gt;&lt;/div&gt;" style="rounded=0;whiteSpace=wrap;html=1;" vertex="1" parent="1">
          <mxGeometry x="900" y="410" width="120" height="60" as="geometry" />
        </mxCell>
        <mxCell id="Wil9Z2Lvd69lb8-8Z4S7-24" value="&lt;div&gt;Pod-N&lt;/div&gt;&lt;div&gt;应用容器组&lt;br&gt;&lt;/div&gt;" style="rounded=0;whiteSpace=wrap;html=1;" vertex="1" parent="1">
          <mxGeometry x="1030" y="410" width="120" height="60" as="geometry" />
        </mxCell>
      </root>
    </mxGraphModel>
  </diagram>
</mxfile>
